<mxfile host="65bd71144e">
    <diagram id="QY23ZWKdMAfdDaG5jvrN" name="Page-1">
        <mxGraphModel dx="1457" dy="871" grid="1" gridSize="10" guides="1" tooltips="1" connect="1" arrows="1" fold="1" page="1" pageScale="1" pageWidth="1169" pageHeight="827" math="1" shadow="0">
            <root>
                <mxCell id="0"/>
                <mxCell id="1" parent="0"/>
                <mxCell id="2" value="&lt;div data-content=&quot;&quot;&gt;&lt;/div&gt;" style="pluginMarkdown=1;shape=cube;whiteSpace=wrap;html=1;boundedLbl=1;backgroundOutline=1;darkOpacity=0.05;darkOpacity2=0.1;" parent="1" vertex="1">
                    <mxGeometry x="330" y="300" width="120" height="80" as="geometry"/>
                </mxCell>
                <mxCell id="3" value="$$\sqrt{3Ã—-1}+(1+x)^2$$" style="text;html=1;strokeColor=none;fillColor=none;align=center;verticalAlign=middle;whiteSpace=wrap;rounded=0;" parent="1" vertex="1">
                    <mxGeometry x="390" y="240" width="190" height="30" as="geometry"/>
                </mxCell>
            </root>
        </mxGraphModel>
    </diagram>
</mxfile>